<svg xmlns="http://www.w3.org/2000/svg" viewBox="0 0 512 512">
  <!-- Carnival Mask Icon -->
  <defs>
    <linearGradient id="goldGradient" x1="0%" y1="0%" x2="100%" y2="100%">
      <stop offset="0%" style="stop-color:#FFD700;stop-opacity:1" />
      <stop offset="50%" style="stop-color:#FFA500;stop-opacity:1" />
      <stop offset="100%" style="stop-color:#FFD700;stop-opacity:1" />
    </linearGradient>
  </defs>
  
  <path d="M256,144 c-60,-60 -160,-40 -192,0 c-20,25 -20,80 0,110 c 40,60 120,40 192,0 c 72,40 152,60 192,0 c 20,-30 20,-85 0,-110 c-32,-40 -132,-60 -192,0 z" 
        fill="#8B0000" stroke="url(#goldGradient)" stroke-width="15" stroke-linejoin="round"/>
        
  <!-- Eye holes -->
  <path d="M166,200 c-30,0 -50,20 -30,45 c 20,25 70,25 90,0 c 20,-25 0,-45 -30,-45 z" fill="#FFFFFF" fill-opacity="0" stroke="url(#goldGradient)" stroke-width="8"/>
  <path d="M346,200 c-30,0 -50,20 -30,45 c 20,25 70,25 90,0 c 20,-25 0,-45 -30,-45 z" fill="#FFFFFF" fill-opacity="0" stroke="url(#goldGradient)" stroke-width="8"/>
  
  <!-- Decorative elements -->
  <circle cx="256" cy="144" r="15" fill="url(#goldGradient)" />
</svg>
